<svg xmlns="http://www.w3.org/2000/svg" xmlns:xlink="http://www.w3.org/1999/xlink" width="543" zoomAndPan="magnify" viewBox="0 0 407.25 60.75" height="81" preserveAspectRatio="xMidYMid meet" version="1.0"><defs><g/><clipPath id="09ff692017"><path d="M 0.460938 0 L 66.191406 0 L 66.191406 60.5 L 0.460938 60.5 Z M 0.460938 0 " clip-rule="nonzero"/></clipPath><clipPath id="057dc2a4c8"><path d="M 194 42 L 210 42 L 210 60.5 L 194 60.5 Z M 194 42 " clip-rule="nonzero"/></clipPath></defs><g clip-path="url(#09ff692017)"><path fill="#5271ff" d="M 28.449219 12.714844 C 29.21875 13.527344 29.988281 14.339844 30.761719 15.15625 C 30.859375 15.257812 30.960938 15.371094 30.988281 15.511719 C 31.015625 15.640625 30.972656 15.769531 30.976562 15.902344 C 30.980469 16.199219 31.203125 16.441406 31.410156 16.65625 C 31.667969 16.921875 31.925781 17.1875 32.1875 17.453125 C 32.351562 17.621094 32.523438 17.800781 32.589844 18.027344 C 32.679688 18.332031 32.5625 18.660156 32.597656 18.976562 C 32.625 19.195312 32.726562 19.398438 32.820312 19.597656 C 33.371094 20.761719 33.785156 21.988281 34.050781 23.246094 C 34.113281 23.542969 34.164062 23.878906 34.003906 24.140625 C 33.859375 24.371094 33.582031 24.480469 33.363281 24.648438 C 33.144531 24.8125 32.96875 25.125 33.125 25.351562 C 33.195312 25.453125 33.3125 25.507812 33.425781 25.554688 C 34.617188 26.054688 35.921875 26.226562 37.207031 26.394531 C 37.4375 26.421875 37.667969 26.453125 37.894531 26.425781 C 38.296875 26.378906 38.671875 26.152344 38.902344 25.824219 C 39.84375 24.457031 41.183594 23.414062 42.8125 23.082031 C 44.851562 22.664062 47.003906 23.414062 49.03125 22.941406 C 49.886719 21.890625 51.058594 20.980469 52.332031 20.519531 C 53.222656 20.195312 54.222656 20.046875 55.117188 20.359375 C 55.335938 20.433594 55.546875 20.535156 55.777344 20.546875 C 56.050781 20.5625 56.3125 20.445312 56.5625 20.332031 C 56.84375 20.199219 57.128906 20.070312 57.410156 19.9375 C 57.046875 18.191406 56.664062 16.285156 56.726562 14.5 C 56.742188 14.046875 56.78125 13.59375 56.761719 13.140625 C 56.75 12.890625 56.722656 12.644531 56.6875 12.394531 C 56.535156 11.34375 56.265625 10.308594 55.890625 9.3125 C 55.476562 8.214844 54.929688 7.171875 54.386719 6.128906 C 54.257812 5.890625 53.835938 5.847656 53.5625 5.863281 C 53.289062 5.875 53.023438 5.953125 52.753906 5.976562 C 51.6875 6.070312 50.710938 5.34375 49.644531 5.25 C 49.171875 5.210938 48.695312 5.300781 48.222656 5.382812 C 48.121094 5.402344 48.011719 5.417969 47.914062 5.382812 C 47.804688 5.339844 47.734375 5.234375 47.675781 5.132812 C 47.554688 4.933594 47.449219 4.71875 47.363281 4.5 C 47.304688 4.359375 47.261719 4.1875 47.351562 4.066406 C 47.394531 4.007812 47.464844 3.972656 47.511719 3.914062 C 47.628906 3.757812 47.523438 3.535156 47.554688 3.34375 C 47.574219 3.226562 47.640625 3.125 47.707031 3.027344 C 48.082031 2.460938 48.382812 1.839844 48.597656 1.191406 C 48.6875 0.917969 48.765625 0.628906 48.953125 0.414062 C 49.246094 0.078125 49.734375 -0.0078125 50.179688 0 C 51.101562 0.015625 52.015625 0.363281 52.714844 0.960938 C 52.902344 1.121094 53.078125 1.296875 53.265625 1.460938 C 53.425781 1.601562 53.59375 1.730469 53.765625 1.859375 C 54.167969 2.160156 54.574219 2.464844 54.976562 2.769531 C 55.285156 3 55.59375 3.234375 55.902344 3.464844 C 56.289062 3.757812 56.683594 4.050781 57.109375 4.289062 C 57.863281 4.710938 58.019531 5.628906 58.457031 6.378906 C 58.722656 6.832031 59.050781 7.144531 59.359375 7.574219 C 59.933594 8.367188 60.503906 9.164062 61.078125 9.957031 C 61.457031 10.484375 61.839844 11.011719 62.199219 11.554688 C 64.132812 14.464844 65.457031 17.777344 66.066406 21.214844 C 66.140625 21.632812 65.929688 22.039062 65.691406 22.390625 C 65.453125 22.746094 65.132812 23.03125 64.820312 23.324219 C 63.226562 24.800781 61.824219 26.464844 60.238281 27.949219 C 58.65625 29.433594 56.847656 30.757812 54.757812 31.351562 C 52.886719 31.882812 50.792969 31.84375 49.1875 32.933594 C 47.078125 34.363281 47.804688 37.785156 46.855469 40.148438 C 46.4375 41.1875 45.855469 42.167969 45.523438 43.238281 C 44.871094 45.339844 44.425781 47.519531 43.503906 49.515625 C 43.164062 50.25 42.777344 50.96875 42.558594 51.746094 C 42.132812 53.277344 42.402344 54.910156 42.789062 56.449219 C 43.175781 57.992188 43.679688 59.523438 43.71875 61.113281 C 43.765625 62.957031 44.738281 64.691406 45.246094 66.464844 L 21.097656 66.464844 C 21.515625 65.183594 21.972656 64.03125 22.523438 62.800781 C 22.6875 62.4375 22.859375 62.074219 22.9375 61.6875 C 23.011719 61.324219 23.003906 60.945312 23.03125 60.574219 C 23.15625 58.625 24.140625 56.753906 23.941406 54.808594 C 23.863281 54.09375 23.984375 53.382812 23.746094 52.703125 C 23.507812 52.023438 23.144531 51.390625 22.785156 50.765625 C 21.886719 49.207031 20.976562 47.640625 19.820312 46.257812 C 19.511719 46.664062 19.15625 47.078125 18.847656 47.484375 C 18.539062 47.894531 18.226562 48.304688 17.902344 48.699219 C 16.578125 50.289062 14.953125 51.644531 13.085938 52.546875 C 12.011719 53.066406 10.863281 53.433594 9.84375 54.054688 C 9.359375 54.351562 8.90625 54.703125 8.382812 54.921875 C 7.792969 55.167969 7.140625 55.238281 6.5 55.257812 C 5.496094 55.289062 4.433594 55.191406 3.59375 54.636719 C 3.265625 54.417969 3.121094 54.019531 2.945312 53.667969 C 2.710938 53.207031 2.476562 52.742188 2.246094 52.28125 C 2.027344 51.851562 1.808594 51.417969 1.628906 50.972656 C 1.09375 49.648438 0.894531 48.21875 0.757812 46.800781 C 0.648438 45.648438 0.574219 44.492188 0.539062 43.335938 C 0.496094 41.871094 1.121094 40.386719 1.238281 38.925781 C 1.332031 37.75 1.148438 36.535156 1.503906 35.410156 C 1.789062 34.515625 2.136719 33.5625 2.613281 32.753906 C 3.609375 31.0625 4.609375 29.367188 5.609375 27.675781 C 5.679688 27.554688 5.753906 27.429688 5.863281 27.339844 C 6.089844 27.148438 6.425781 27.148438 6.707031 27.242188 C 6.988281 27.332031 7.234375 27.507812 7.496094 27.644531 C 8.152344 27.988281 8.90625 28.113281 9.539062 28.496094 C 9.640625 28.558594 9.738281 28.628906 9.796875 28.730469 C 9.855469 28.84375 9.859375 28.972656 9.890625 29.09375 C 9.964844 29.355469 10.167969 29.550781 10.328125 29.769531 C 10.484375 29.988281 10.601562 30.28125 10.476562 30.519531 C 10.425781 30.617188 10.339844 30.691406 10.25 30.757812 C 9.859375 31.070312 9.414062 31.332031 9.113281 31.730469 C 8.953125 31.945312 8.839844 32.1875 8.6875 32.40625 C 7.890625 33.539062 6.160156 33.785156 5.5 35 C 5.253906 35.464844 5.199219 36.003906 5.191406 36.53125 C 5.171875 37.601562 5.324219 38.679688 5.632812 39.707031 C 5.871094 40.480469 6.378906 41.074219 6.800781 41.765625 C 7.003906 42.097656 7.214844 42.429688 7.457031 42.734375 C 7.640625 42.972656 7.84375 43.195312 8.007812 43.445312 C 8.214844 43.761719 8.351562 44.117188 8.484375 44.472656 C 8.730469 43.996094 8.867188 43.453125 9.03125 42.945312 C 9.277344 42.1875 9.777344 41.53125 10.367188 40.988281 C 10.953125 40.449219 11.628906 40.015625 12.304688 39.589844 C 12.273438 38.535156 12.78125 37.546875 13.253906 36.601562 C 13.550781 36.015625 13.871094 35.4375 14.265625 34.90625 C 15.972656 32.597656 19.015625 31.359375 21.855469 31.816406 C 22.085938 31.855469 22.359375 31.738281 22.527344 31.574219 C 23.164062 30.945312 23.804688 30.316406 24.441406 29.6875 C 24.648438 29.480469 24.859375 29.273438 25.011719 29.019531 C 25.328125 28.488281 25.332031 27.8125 25.15625 27.214844 C 24.976562 26.617188 24.640625 26.085938 24.300781 25.5625 C 24.078125 25.21875 23.84375 24.871094 23.515625 24.621094 C 23.300781 24.457031 23.054688 24.339844 22.820312 24.203125 C 21.917969 23.667969 21.230469 22.777344 20.238281 22.425781 C 18.894531 21.953125 17.863281 20.636719 17.367188 19.300781 C 17.167969 18.769531 17.089844 18.195312 17.140625 17.632812 C 17.171875 17.238281 17.265625 16.855469 17.359375 16.46875 C 17.488281 15.933594 17.617188 15.394531 17.746094 14.855469 C 17.796875 14.648438 17.847656 14.441406 17.941406 14.25 C 18.132812 13.859375 18.484375 13.574219 18.824219 13.300781 C 19.578125 12.707031 20.339844 12.117188 21.179688 11.65625 C 22.019531 11.195312 22.949219 10.863281 23.90625 10.816406 C 24.375 10.796875 24.847656 10.84375 25.3125 10.90625 C 25.90625 10.992188 26.5 11.105469 27.042969 11.359375 C 27.585938 11.613281 28.035156 12.28125 28.449219 12.714844 Z M 28.449219 12.714844 " fill-opacity="1" fill-rule="nonzero"/></g><g fill="#000000" fill-opacity="1"><g transform="translate(62.266885, 21.287399)"><g><path d="M 1.796875 -16.75 L 15.34375 -16.75 L 15.34375 -12.734375 L 7.1875 -12.734375 L 7.1875 -9.859375 L 14.1875 -9.859375 L 14.1875 -6.015625 L 7.1875 -6.015625 L 7.1875 0 L 1.796875 0 Z M 1.796875 -16.75 "/></g></g></g><g fill="#000000" fill-opacity="1"><g transform="translate(78.505076, 21.287399)"><g><path d="M 1.625 -14.359375 L 1.625 -17.65625 L 6.46875 -17.65625 L 6.46875 -14.359375 Z M 1.625 0 L 1.625 -12.859375 L 6.46875 -12.859375 L 6.46875 0 Z M 1.625 0 "/></g></g></g><g fill="#000000" fill-opacity="1"><g transform="translate(86.612, 21.287399)"><g><path d="M 10.03125 -12.859375 L 10.03125 -9.5625 L 7.296875 -9.5625 L 7.296875 -4.671875 C 7.296875 -4.085938 7.394531 -3.660156 7.59375 -3.390625 C 7.789062 -3.128906 8.148438 -3 8.671875 -3 L 10.03125 -3 L 10.03125 -0.140625 C 9.644531 -0.015625 9.140625 0.0859375 8.515625 0.171875 C 7.898438 0.253906 7.363281 0.296875 6.90625 0.296875 C 5.476562 0.296875 4.378906 0.0351562 3.609375 -0.484375 C 2.835938 -1.003906 2.453125 -1.890625 2.453125 -3.140625 L 2.453125 -9.5625 L 0.65625 -9.5625 L 0.65625 -12.859375 L 2.65625 -12.859375 L 3.703125 -16.75 L 7.296875 -16.75 L 7.296875 -12.859375 Z M 10.03125 -12.859375 "/></g></g></g><g fill="#000000" fill-opacity="1"><g transform="translate(97.421231, 21.287399)"><g><path d="M 11.203125 -16.75 C 12.234375 -16.75 13.15625 -16.507812 13.96875 -16.03125 C 14.78125 -15.550781 15.410156 -14.894531 15.859375 -14.0625 C 16.316406 -13.226562 16.546875 -12.289062 16.546875 -11.25 L 16.546875 -10.9375 C 16.546875 -9.894531 16.316406 -8.953125 15.859375 -8.109375 C 15.410156 -7.265625 14.78125 -6.601562 13.96875 -6.125 C 13.15625 -5.644531 12.234375 -5.40625 11.203125 -5.40625 L 7.1875 -5.40625 L 7.1875 0 L 1.796875 0 L 1.796875 -16.75 Z M 7.1875 -9.328125 L 9.390625 -9.328125 C 9.960938 -9.328125 10.390625 -9.472656 10.671875 -9.765625 C 10.953125 -10.054688 11.09375 -10.453125 11.09375 -10.953125 L 11.09375 -11.15625 C 11.09375 -11.664062 10.953125 -12.0625 10.671875 -12.34375 C 10.390625 -12.632812 9.960938 -12.78125 9.390625 -12.78125 L 7.1875 -12.78125 Z M 7.1875 -9.328125 "/></g></g></g><g fill="#000000" fill-opacity="1"><g transform="translate(114.998398, 21.287399)"><g><path d="M 9.28125 -13.171875 C 9.644531 -13.171875 9.972656 -13.125 10.265625 -13.03125 C 10.566406 -12.945312 10.71875 -12.894531 10.71875 -12.875 L 10.71875 -8.8125 L 9.15625 -8.8125 C 8.144531 -8.8125 7.414062 -8.550781 6.96875 -8.03125 C 6.53125 -7.507812 6.3125 -6.738281 6.3125 -5.71875 L 6.3125 0 L 1.453125 0 L 1.453125 -12.859375 L 5.421875 -12.859375 L 5.75 -10.90625 C 6.039062 -11.65625 6.5 -12.21875 7.125 -12.59375 C 7.757812 -12.976562 8.476562 -13.171875 9.28125 -13.171875 Z M 9.28125 -13.171875 "/></g></g></g><g fill="#000000" fill-opacity="1"><g transform="translate(125.807629, 21.287399)"><g><path d="M 8.109375 -13.140625 C 10.359375 -13.140625 12.128906 -12.566406 13.421875 -11.421875 C 14.710938 -10.285156 15.359375 -8.617188 15.359375 -6.421875 C 15.359375 -4.234375 14.710938 -2.566406 13.421875 -1.421875 C 12.128906 -0.273438 10.359375 0.296875 8.109375 0.296875 C 5.847656 0.296875 4.078125 -0.269531 2.796875 -1.40625 C 1.515625 -2.539062 0.875 -4.210938 0.875 -6.421875 C 0.875 -8.628906 1.515625 -10.300781 2.796875 -11.4375 C 4.078125 -12.570312 5.847656 -13.140625 8.109375 -13.140625 Z M 8.109375 -9.859375 C 6.515625 -9.859375 5.71875 -8.941406 5.71875 -7.109375 L 5.71875 -5.71875 C 5.71875 -3.90625 6.515625 -3 8.109375 -3 C 9.710938 -3 10.515625 -3.90625 10.515625 -5.71875 L 10.515625 -7.109375 C 10.515625 -8.941406 9.710938 -9.859375 8.109375 -9.859375 Z M 8.109375 -9.859375 "/></g></g></g><g fill="#000000" fill-opacity="1"><g transform="translate(142.04582, 21.287399)"><g/></g></g><g fill="#000000" fill-opacity="1"><g transform="translate(150.152744, 21.287399)"><g><path d="M 10.21875 -17.046875 C 11.832031 -17.046875 13.28125 -16.800781 14.5625 -16.3125 C 15.84375 -15.820312 16.859375 -15.101562 17.609375 -14.15625 C 18.367188 -13.207031 18.75 -12.050781 18.75 -10.6875 L 13.609375 -10.6875 C 13.609375 -11.382812 13.300781 -11.945312 12.6875 -12.375 C 12.070312 -12.8125 11.320312 -13.03125 10.4375 -13.03125 C 9.175781 -13.03125 8.21875 -12.691406 7.5625 -12.015625 C 6.914062 -11.335938 6.59375 -10.382812 6.59375 -9.15625 L 6.59375 -7.59375 C 6.59375 -6.363281 6.914062 -5.410156 7.5625 -4.734375 C 8.21875 -4.054688 9.175781 -3.71875 10.4375 -3.71875 C 11.320312 -3.71875 12.070312 -3.925781 12.6875 -4.34375 C 13.300781 -4.757812 13.609375 -5.289062 13.609375 -5.9375 L 9.8125 -5.9375 L 9.8125 -9.34375 L 18.75 -9.34375 L 18.75 0 L 15.96875 0 L 15.4375 -1.65625 C 13.90625 -0.351562 11.910156 0.296875 9.453125 0.296875 C 6.671875 0.296875 4.582031 -0.425781 3.1875 -1.875 C 1.789062 -3.332031 1.09375 -5.5 1.09375 -8.375 C 1.09375 -11.21875 1.882812 -13.375 3.46875 -14.84375 C 5.050781 -16.3125 7.300781 -17.046875 10.21875 -17.046875 Z M 10.21875 -17.046875 "/></g></g></g><g fill="#000000" fill-opacity="1"><g transform="translate(170.432219, 21.287399)"><g><path d="M 10.296875 -0.390625 C 9.628906 1.410156 8.8125 2.773438 7.84375 3.703125 C 6.882812 4.640625 5.535156 5.109375 3.796875 5.109375 C 2.742188 5.109375 1.8125 4.960938 1 4.671875 L 1 1.78125 L 2.953125 1.78125 C 4.160156 1.78125 4.878906 1.1875 5.109375 0 L 0 -12.859375 L 5.203125 -12.859375 L 7.671875 -4.3125 L 7.84375 -4.3125 L 10.109375 -12.859375 L 14.875 -12.859375 Z M 10.296875 -0.390625 "/></g></g></g><g fill="#000000" fill-opacity="1"><g transform="translate(185.307078, 21.287399)"><g><path d="M 18.53125 -13.140625 C 19.988281 -13.140625 21.082031 -12.722656 21.8125 -11.890625 C 22.539062 -11.054688 22.90625 -9.867188 22.90625 -8.328125 L 22.90625 0 L 18.0625 0 L 18.0625 -7.734375 C 18.0625 -8.285156 17.925781 -8.726562 17.65625 -9.0625 C 17.394531 -9.394531 17.019531 -9.5625 16.53125 -9.5625 C 15.957031 -9.5625 15.492188 -9.367188 15.140625 -8.984375 C 14.785156 -8.597656 14.609375 -8.117188 14.609375 -7.546875 L 14.609375 0 L 9.765625 0 L 9.765625 -7.734375 C 9.765625 -8.285156 9.628906 -8.726562 9.359375 -9.0625 C 9.085938 -9.394531 8.710938 -9.5625 8.234375 -9.5625 C 7.660156 -9.5625 7.195312 -9.367188 6.84375 -8.984375 C 6.488281 -8.597656 6.3125 -8.117188 6.3125 -7.546875 L 6.3125 0 L 1.453125 0 L 1.453125 -12.859375 L 5.421875 -12.859375 L 5.75 -10.9375 C 6.226562 -11.613281 6.867188 -12.148438 7.671875 -12.546875 C 8.484375 -12.941406 9.332031 -13.140625 10.21875 -13.140625 C 12.15625 -13.140625 13.457031 -12.40625 14.125 -10.9375 C 14.625 -11.613281 15.265625 -12.148438 16.046875 -12.546875 C 16.835938 -12.941406 17.664062 -13.140625 18.53125 -13.140625 Z M 18.53125 -13.140625 "/></g></g></g><g fill="#000000" fill-opacity="1"><g transform="translate(209.652192, 21.287399)"><g/></g></g><g fill="#000000" fill-opacity="1"><g transform="translate(217.759116, 21.287399)"><g><path d="M 16.1875 0 L 16.1875 -6.03125 C 16.1875 -6.78125 16.210938 -7.546875 16.265625 -8.328125 C 16.328125 -9.117188 16.390625 -9.78125 16.453125 -10.3125 C 16.515625 -10.851562 16.554688 -11.195312 16.578125 -11.34375 L 16.484375 -11.34375 L 13.390625 0 L 9.171875 0 L 6.0625 -11.3125 L 5.96875 -11.3125 C 5.976562 -11.164062 6.019531 -10.828125 6.09375 -10.296875 C 6.164062 -9.773438 6.234375 -9.117188 6.296875 -8.328125 C 6.367188 -7.546875 6.40625 -6.78125 6.40625 -6.03125 L 6.40625 0 L 1.453125 0 L 1.453125 -16.75 L 9.0625 -16.75 L 11.59375 -7.078125 L 11.6875 -7.078125 L 14.1875 -16.75 L 21.515625 -16.75 L 21.515625 0 Z M 16.1875 0 "/></g></g></g><g fill="#000000" fill-opacity="1"><g transform="translate(240.740898, 21.287399)"><g><path d="M 7.8125 -13.140625 C 9.78125 -13.140625 11.378906 -12.8125 12.609375 -12.15625 C 13.835938 -11.5 14.453125 -10.429688 14.453125 -8.953125 L 14.453125 -3.9375 C 14.453125 -3.664062 14.515625 -3.441406 14.640625 -3.265625 C 14.773438 -3.085938 14.972656 -3 15.234375 -3 L 16.109375 -3 L 16.109375 -0.1875 C 16.066406 -0.15625 15.941406 -0.101562 15.734375 -0.03125 C 15.535156 0.0390625 15.25 0.113281 14.875 0.1875 C 14.5 0.257812 14.066406 0.296875 13.578125 0.296875 C 12.640625 0.296875 11.863281 0.15625 11.25 -0.125 C 10.644531 -0.414062 10.226562 -0.8125 10 -1.3125 C 9.382812 -0.820312 8.695312 -0.429688 7.9375 -0.140625 C 7.175781 0.148438 6.285156 0.296875 5.265625 0.296875 C 2.242188 0.296875 0.734375 -0.90625 0.734375 -3.3125 C 0.734375 -4.5625 1.066406 -5.515625 1.734375 -6.171875 C 2.410156 -6.828125 3.378906 -7.273438 4.640625 -7.515625 C 5.910156 -7.765625 7.566406 -7.890625 9.609375 -7.890625 L 9.609375 -8.515625 C 9.609375 -9.023438 9.429688 -9.40625 9.078125 -9.65625 C 8.734375 -9.914062 8.285156 -10.046875 7.734375 -10.046875 C 7.234375 -10.046875 6.800781 -9.957031 6.4375 -9.78125 C 6.070312 -9.601562 5.890625 -9.320312 5.890625 -8.9375 L 5.890625 -8.84375 L 1.125 -8.84375 C 1.101562 -8.914062 1.09375 -9.023438 1.09375 -9.171875 C 1.09375 -10.390625 1.671875 -11.351562 2.828125 -12.0625 C 3.992188 -12.78125 5.65625 -13.140625 7.8125 -13.140625 Z M 9.609375 -5.59375 C 8.234375 -5.59375 7.21875 -5.441406 6.5625 -5.140625 C 5.90625 -4.847656 5.578125 -4.445312 5.578125 -3.9375 C 5.578125 -3.125 6.128906 -2.71875 7.234375 -2.71875 C 7.859375 -2.71875 8.410156 -2.890625 8.890625 -3.234375 C 9.367188 -3.578125 9.609375 -4 9.609375 -4.5 Z M 9.609375 -5.59375 "/></g></g></g><g fill="#000000" fill-opacity="1"><g transform="translate(256.979089, 21.287399)"><g><path d="M 10.328125 -13.140625 C 11.816406 -13.140625 12.929688 -12.722656 13.671875 -11.890625 C 14.421875 -11.066406 14.796875 -9.878906 14.796875 -8.328125 L 14.796875 0 L 9.953125 0 L 9.953125 -7.734375 C 9.953125 -8.285156 9.8125 -8.726562 9.53125 -9.0625 C 9.25 -9.394531 8.847656 -9.5625 8.328125 -9.5625 C 7.722656 -9.5625 7.234375 -9.367188 6.859375 -8.984375 C 6.492188 -8.597656 6.3125 -8.117188 6.3125 -7.546875 L 6.3125 0 L 1.453125 0 L 1.453125 -12.859375 L 5.421875 -12.859375 L 5.75 -10.90625 C 6.25 -11.582031 6.90625 -12.125 7.71875 -12.53125 C 8.539062 -12.9375 9.410156 -13.140625 10.328125 -13.140625 Z M 10.328125 -13.140625 "/></g></g></g><g fill="#000000" fill-opacity="1"><g transform="translate(273.21728, 21.287399)"><g><path d="M 7.8125 -13.140625 C 9.78125 -13.140625 11.378906 -12.8125 12.609375 -12.15625 C 13.835938 -11.5 14.453125 -10.429688 14.453125 -8.953125 L 14.453125 -3.9375 C 14.453125 -3.664062 14.515625 -3.441406 14.640625 -3.265625 C 14.773438 -3.085938 14.972656 -3 15.234375 -3 L 16.109375 -3 L 16.109375 -0.1875 C 16.066406 -0.15625 15.941406 -0.101562 15.734375 -0.03125 C 15.535156 0.0390625 15.25 0.113281 14.875 0.1875 C 14.5 0.257812 14.066406 0.296875 13.578125 0.296875 C 12.640625 0.296875 11.863281 0.15625 11.25 -0.125 C 10.644531 -0.414062 10.226562 -0.8125 10 -1.3125 C 9.382812 -0.820312 8.695312 -0.429688 7.9375 -0.140625 C 7.175781 0.148438 6.285156 0.296875 5.265625 0.296875 C 2.242188 0.296875 0.734375 -0.90625 0.734375 -3.3125 C 0.734375 -4.5625 1.066406 -5.515625 1.734375 -6.171875 C 2.410156 -6.828125 3.378906 -7.273438 4.640625 -7.515625 C 5.910156 -7.765625 7.566406 -7.890625 9.609375 -7.890625 L 9.609375 -8.515625 C 9.609375 -9.023438 9.429688 -9.40625 9.078125 -9.65625 C 8.734375 -9.914062 8.285156 -10.046875 7.734375 -10.046875 C 7.234375 -10.046875 6.800781 -9.957031 6.4375 -9.78125 C 6.070312 -9.601562 5.890625 -9.320312 5.890625 -8.9375 L 5.890625 -8.84375 L 1.125 -8.84375 C 1.101562 -8.914062 1.09375 -9.023438 1.09375 -9.171875 C 1.09375 -10.390625 1.671875 -11.351562 2.828125 -12.0625 C 3.992188 -12.78125 5.65625 -13.140625 7.8125 -13.140625 Z M 9.609375 -5.59375 C 8.234375 -5.59375 7.21875 -5.441406 6.5625 -5.140625 C 5.90625 -4.847656 5.578125 -4.445312 5.578125 -3.9375 C 5.578125 -3.125 6.128906 -2.71875 7.234375 -2.71875 C 7.859375 -2.71875 8.410156 -2.890625 8.890625 -3.234375 C 9.367188 -3.578125 9.609375 -4 9.609375 -4.5 Z M 9.609375 -5.59375 "/></g></g></g><g fill="#000000" fill-opacity="1"><g transform="translate(289.455472, 21.287399)"><g><path d="M 15.921875 -15.265625 C 15.921875 -14.273438 15.671875 -13.507812 15.171875 -12.96875 C 14.679688 -12.4375 13.941406 -12.039062 12.953125 -11.78125 C 13.421875 -11.425781 13.785156 -11.007812 14.046875 -10.53125 C 14.316406 -10.050781 14.453125 -9.539062 14.453125 -9 C 14.453125 -7.644531 13.9375 -6.617188 12.90625 -5.921875 C 11.882812 -5.222656 10.601562 -4.875 9.0625 -4.875 L 7.203125 -4.875 C 6.179688 -4.875 5.671875 -4.632812 5.671875 -4.15625 C 5.671875 -3.9375 5.785156 -3.753906 6.015625 -3.609375 C 6.242188 -3.472656 6.640625 -3.40625 7.203125 -3.40625 L 11.59375 -3.40625 C 13.019531 -3.40625 14.097656 -3.03125 14.828125 -2.28125 C 15.554688 -1.539062 15.921875 -0.546875 15.921875 0.703125 C 15.921875 1.628906 15.675781 2.425781 15.1875 3.09375 C 14.695312 3.757812 14.039062 4.257812 13.21875 4.59375 C 12.394531 4.9375 11.492188 5.109375 10.515625 5.109375 L 3.359375 5.109375 C 2.773438 5.109375 2.234375 4.96875 1.734375 4.6875 C 1.242188 4.414062 0.851562 4.039062 0.5625 3.5625 C 0.269531 3.082031 0.125 2.550781 0.125 1.96875 C 0.125 1.332031 0.316406 0.757812 0.703125 0.25 C 1.097656 -0.257812 1.585938 -0.644531 2.171875 -0.90625 C 1.773438 -1.175781 1.460938 -1.503906 1.234375 -1.890625 C 1.015625 -2.285156 0.90625 -2.710938 0.90625 -3.171875 C 0.90625 -3.796875 1.140625 -4.363281 1.609375 -4.875 C 2.078125 -5.382812 2.660156 -5.734375 3.359375 -5.921875 C 2.722656 -6.328125 2.21875 -6.789062 1.84375 -7.3125 C 1.476562 -7.84375 1.296875 -8.398438 1.296875 -8.984375 C 1.296875 -10.472656 1.898438 -11.535156 3.109375 -12.171875 C 4.316406 -12.816406 5.914062 -13.140625 7.90625 -13.140625 C 8.78125 -13.140625 9.488281 -13.09375 10.03125 -13 C 10.820312 -13.5 11.332031 -13.957031 11.5625 -14.375 C 11.800781 -14.789062 11.921875 -15.085938 11.921875 -15.265625 Z M 7.859375 -10.609375 C 7.328125 -10.609375 6.890625 -10.46875 6.546875 -10.1875 C 6.203125 -9.914062 6.03125 -9.519531 6.03125 -9 C 6.03125 -8.46875 6.1875 -8.066406 6.5 -7.796875 C 6.820312 -7.535156 7.273438 -7.40625 7.859375 -7.40625 C 8.441406 -7.40625 8.898438 -7.535156 9.234375 -7.796875 C 9.566406 -8.066406 9.734375 -8.46875 9.734375 -9 C 9.734375 -9.539062 9.566406 -9.941406 9.234375 -10.203125 C 8.898438 -10.472656 8.441406 -10.609375 7.859375 -10.609375 Z M 5.984375 0 C 5.609375 0 5.300781 0.0976562 5.0625 0.296875 C 4.832031 0.503906 4.71875 0.796875 4.71875 1.171875 C 4.71875 1.546875 4.835938 1.84375 5.078125 2.0625 C 5.328125 2.289062 5.628906 2.40625 5.984375 2.40625 L 9.78125 2.40625 C 10.144531 2.40625 10.453125 2.296875 10.703125 2.078125 C 10.953125 1.859375 11.078125 1.5625 11.078125 1.1875 C 11.078125 0.820312 10.953125 0.53125 10.703125 0.3125 C 10.460938 0.101562 10.15625 0 9.78125 0 Z M 5.984375 0 "/></g></g></g><g fill="#000000" fill-opacity="1"><g transform="translate(305.693663, 21.287399)"><g><path d="M 8.109375 -13.140625 C 10.460938 -13.140625 12.257812 -12.585938 13.5 -11.484375 C 14.738281 -10.378906 15.359375 -8.691406 15.359375 -6.421875 L 15.359375 -5.59375 L 5.71875 -5.59375 C 5.71875 -4.675781 5.925781 -3.976562 6.34375 -3.5 C 6.757812 -3.03125 7.410156 -2.796875 8.296875 -2.796875 C 9.109375 -2.796875 9.703125 -2.96875 10.078125 -3.3125 C 10.460938 -3.65625 10.65625 -4.109375 10.65625 -4.671875 L 15.359375 -4.671875 C 15.359375 -3.117188 14.765625 -1.898438 13.578125 -1.015625 C 12.398438 -0.140625 10.675781 0.296875 8.40625 0.296875 C 6.007812 0.296875 4.15625 -0.257812 2.84375 -1.375 C 1.53125 -2.488281 0.875 -4.171875 0.875 -6.421875 C 0.875 -8.628906 1.515625 -10.300781 2.796875 -11.4375 C 4.078125 -12.570312 5.847656 -13.140625 8.109375 -13.140625 Z M 8.296875 -10.046875 C 6.773438 -10.046875 5.925781 -9.328125 5.75 -7.890625 L 10.46875 -7.890625 C 10.46875 -8.554688 10.273438 -9.082031 9.890625 -9.46875 C 9.515625 -9.851562 8.984375 -10.046875 8.296875 -10.046875 Z M 8.296875 -10.046875 "/></g></g></g><g fill="#000000" fill-opacity="1"><g transform="translate(321.931854, 21.287399)"><g><path d="M 18.53125 -13.140625 C 19.988281 -13.140625 21.082031 -12.722656 21.8125 -11.890625 C 22.539062 -11.054688 22.90625 -9.867188 22.90625 -8.328125 L 22.90625 0 L 18.0625 0 L 18.0625 -7.734375 C 18.0625 -8.285156 17.925781 -8.726562 17.65625 -9.0625 C 17.394531 -9.394531 17.019531 -9.5625 16.53125 -9.5625 C 15.957031 -9.5625 15.492188 -9.367188 15.140625 -8.984375 C 14.785156 -8.597656 14.609375 -8.117188 14.609375 -7.546875 L 14.609375 0 L 9.765625 0 L 9.765625 -7.734375 C 9.765625 -8.285156 9.628906 -8.726562 9.359375 -9.0625 C 9.085938 -9.394531 8.710938 -9.5625 8.234375 -9.5625 C 7.660156 -9.5625 7.195312 -9.367188 6.84375 -8.984375 C 6.488281 -8.597656 6.3125 -8.117188 6.3125 -7.546875 L 6.3125 0 L 1.453125 0 L 1.453125 -12.859375 L 5.421875 -12.859375 L 5.75 -10.9375 C 6.226562 -11.613281 6.867188 -12.148438 7.671875 -12.546875 C 8.484375 -12.941406 9.332031 -13.140625 10.21875 -13.140625 C 12.15625 -13.140625 13.457031 -12.40625 14.125 -10.9375 C 14.625 -11.613281 15.265625 -12.148438 16.046875 -12.546875 C 16.835938 -12.941406 17.664062 -13.140625 18.53125 -13.140625 Z M 18.53125 -13.140625 "/></g></g></g><g fill="#000000" fill-opacity="1"><g transform="translate(346.276957, 21.287399)"><g><path d="M 8.109375 -13.140625 C 10.460938 -13.140625 12.257812 -12.585938 13.5 -11.484375 C 14.738281 -10.378906 15.359375 -8.691406 15.359375 -6.421875 L 15.359375 -5.59375 L 5.71875 -5.59375 C 5.71875 -4.675781 5.925781 -3.976562 6.34375 -3.5 C 6.757812 -3.03125 7.410156 -2.796875 8.296875 -2.796875 C 9.109375 -2.796875 9.703125 -2.96875 10.078125 -3.3125 C 10.460938 -3.65625 10.65625 -4.109375 10.65625 -4.671875 L 15.359375 -4.671875 C 15.359375 -3.117188 14.765625 -1.898438 13.578125 -1.015625 C 12.398438 -0.140625 10.675781 0.296875 8.40625 0.296875 C 6.007812 0.296875 4.15625 -0.257812 2.84375 -1.375 C 1.53125 -2.488281 0.875 -4.171875 0.875 -6.421875 C 0.875 -8.628906 1.515625 -10.300781 2.796875 -11.4375 C 4.078125 -12.570312 5.847656 -13.140625 8.109375 -13.140625 Z M 8.296875 -10.046875 C 6.773438 -10.046875 5.925781 -9.328125 5.75 -7.890625 L 10.46875 -7.890625 C 10.46875 -8.554688 10.273438 -9.082031 9.890625 -9.46875 C 9.515625 -9.851562 8.984375 -10.046875 8.296875 -10.046875 Z M 8.296875 -10.046875 "/></g></g></g><g fill="#000000" fill-opacity="1"><g transform="translate(362.515148, 21.287399)"><g><path d="M 10.328125 -13.140625 C 11.816406 -13.140625 12.929688 -12.722656 13.671875 -11.890625 C 14.421875 -11.066406 14.796875 -9.878906 14.796875 -8.328125 L 14.796875 0 L 9.953125 0 L 9.953125 -7.734375 C 9.953125 -8.285156 9.8125 -8.726562 9.53125 -9.0625 C 9.25 -9.394531 8.847656 -9.5625 8.328125 -9.5625 C 7.722656 -9.5625 7.234375 -9.367188 6.859375 -8.984375 C 6.492188 -8.597656 6.3125 -8.117188 6.3125 -7.546875 L 6.3125 0 L 1.453125 0 L 1.453125 -12.859375 L 5.421875 -12.859375 L 5.75 -10.90625 C 6.25 -11.582031 6.90625 -12.125 7.71875 -12.53125 C 8.539062 -12.9375 9.410156 -13.140625 10.328125 -13.140625 Z M 10.328125 -13.140625 "/></g></g></g><g fill="#000000" fill-opacity="1"><g transform="translate(378.753339, 21.287399)"><g><path d="M 10.03125 -12.859375 L 10.03125 -9.5625 L 7.296875 -9.5625 L 7.296875 -4.671875 C 7.296875 -4.085938 7.394531 -3.660156 7.59375 -3.390625 C 7.789062 -3.128906 8.148438 -3 8.671875 -3 L 10.03125 -3 L 10.03125 -0.140625 C 9.644531 -0.015625 9.140625 0.0859375 8.515625 0.171875 C 7.898438 0.253906 7.363281 0.296875 6.90625 0.296875 C 5.476562 0.296875 4.378906 0.0351562 3.609375 -0.484375 C 2.835938 -1.003906 2.453125 -1.890625 2.453125 -3.140625 L 2.453125 -9.5625 L 0.65625 -9.5625 L 0.65625 -12.859375 L 2.65625 -12.859375 L 3.703125 -16.75 L 7.296875 -16.75 L 7.296875 -12.859375 Z M 10.03125 -12.859375 "/></g></g></g><g fill="#000000" fill-opacity="1"><g transform="translate(176.558268, 54.899078)"><g><path d="M 8.84375 -17.046875 C 10.976562 -17.046875 12.734375 -16.609375 14.109375 -15.734375 C 15.492188 -14.867188 16.203125 -13.582031 16.234375 -11.875 L 16.234375 -11.59375 L 11.203125 -11.59375 L 11.203125 -11.6875 C 11.203125 -12.175781 11.019531 -12.582031 10.65625 -12.90625 C 10.300781 -13.226562 9.757812 -13.390625 9.03125 -13.390625 C 8.3125 -13.390625 7.757812 -13.28125 7.375 -13.0625 C 7 -12.851562 6.8125 -12.597656 6.8125 -12.296875 C 6.8125 -11.859375 7.070312 -11.53125 7.59375 -11.3125 C 8.113281 -11.101562 8.953125 -10.882812 10.109375 -10.65625 C 11.453125 -10.382812 12.554688 -10.097656 13.421875 -9.796875 C 14.296875 -9.492188 15.054688 -9 15.703125 -8.3125 C 16.347656 -7.632812 16.679688 -6.710938 16.703125 -5.546875 C 16.703125 -3.566406 16.03125 -2.097656 14.6875 -1.140625 C 13.351562 -0.179688 11.566406 0.296875 9.328125 0.296875 C 6.710938 0.296875 4.675781 -0.140625 3.21875 -1.015625 C 1.769531 -1.898438 1.046875 -3.453125 1.046875 -5.671875 L 6.140625 -5.671875 C 6.140625 -4.828125 6.359375 -4.257812 6.796875 -3.96875 C 7.234375 -3.6875 7.914062 -3.546875 8.84375 -3.546875 C 9.519531 -3.546875 10.082031 -3.617188 10.53125 -3.765625 C 10.976562 -3.921875 11.203125 -4.222656 11.203125 -4.671875 C 11.203125 -5.078125 10.953125 -5.378906 10.453125 -5.578125 C 9.960938 -5.785156 9.15625 -6.003906 8.03125 -6.234375 C 6.664062 -6.523438 5.535156 -6.828125 4.640625 -7.140625 C 3.753906 -7.460938 2.976562 -7.988281 2.3125 -8.71875 C 1.644531 -9.445312 1.3125 -10.4375 1.3125 -11.6875 C 1.3125 -13.519531 2.019531 -14.867188 3.4375 -15.734375 C 4.863281 -16.609375 6.664062 -17.046875 8.84375 -17.046875 Z M 8.84375 -17.046875 "/></g></g></g><g clip-path="url(#057dc2a4c8)"><g fill="#000000" fill-opacity="1"><g transform="translate(194.135435, 54.899078)"><g><path d="M 10.296875 -0.390625 C 9.628906 1.410156 8.8125 2.773438 7.84375 3.703125 C 6.882812 4.640625 5.535156 5.109375 3.796875 5.109375 C 2.742188 5.109375 1.8125 4.960938 1 4.671875 L 1 1.78125 L 2.953125 1.78125 C 4.160156 1.78125 4.878906 1.1875 5.109375 0 L 0 -12.859375 L 5.203125 -12.859375 L 7.671875 -4.3125 L 7.84375 -4.3125 L 10.109375 -12.859375 L 14.875 -12.859375 Z M 10.296875 -0.390625 "/></g></g></g></g><g fill="#000000" fill-opacity="1"><g transform="translate(209.010294, 54.899078)"><g><path d="M 7.578125 -13.140625 C 9.296875 -13.140625 10.75 -12.800781 11.9375 -12.125 C 13.132812 -11.457031 13.734375 -10.414062 13.734375 -9 L 9.21875 -9 C 9.21875 -9.476562 9.007812 -9.8125 8.59375 -10 C 8.300781 -10.164062 7.9375 -10.25 7.5 -10.25 C 6.332031 -10.25 5.75 -9.972656 5.75 -9.421875 C 5.75 -9.109375 5.953125 -8.882812 6.359375 -8.75 C 6.765625 -8.625 7.425781 -8.488281 8.34375 -8.34375 C 9.476562 -8.1875 10.425781 -8 11.1875 -7.78125 C 11.957031 -7.5625 12.625 -7.171875 13.1875 -6.609375 C 13.757812 -6.046875 14.046875 -5.265625 14.046875 -4.265625 C 14.046875 -2.617188 13.429688 -1.445312 12.203125 -0.75 C 10.984375 -0.0507812 9.382812 0.296875 7.40625 0.296875 C 6.269531 0.296875 5.195312 0.140625 4.1875 -0.171875 C 3.175781 -0.492188 2.351562 -0.988281 1.71875 -1.65625 C 1.09375 -2.320312 0.78125 -3.164062 0.78125 -4.1875 L 5.28125 -4.1875 L 5.28125 -4.09375 C 5.300781 -3.539062 5.53125 -3.15625 5.96875 -2.9375 C 6.414062 -2.71875 6.894531 -2.609375 7.40625 -2.609375 C 8.75 -2.609375 9.421875 -2.921875 9.421875 -3.546875 C 9.421875 -3.878906 9.207031 -4.117188 8.78125 -4.265625 C 8.363281 -4.410156 7.675781 -4.5625 6.71875 -4.71875 C 5.5625 -4.914062 4.613281 -5.128906 3.875 -5.359375 C 3.144531 -5.585938 2.503906 -5.972656 1.953125 -6.515625 C 1.398438 -7.054688 1.125 -7.8125 1.125 -8.78125 C 1.125 -10.363281 1.71875 -11.484375 2.90625 -12.140625 C 4.101562 -12.804688 5.660156 -13.140625 7.578125 -13.140625 Z M 7.578125 -13.140625 "/></g></g></g><g fill="#000000" fill-opacity="1"><g transform="translate(223.885153, 54.899078)"><g><path d="M 10.03125 -12.859375 L 10.03125 -9.5625 L 7.296875 -9.5625 L 7.296875 -4.671875 C 7.296875 -4.085938 7.394531 -3.660156 7.59375 -3.390625 C 7.789062 -3.128906 8.148438 -3 8.671875 -3 L 10.03125 -3 L 10.03125 -0.140625 C 9.644531 -0.015625 9.140625 0.0859375 8.515625 0.171875 C 7.898438 0.253906 7.363281 0.296875 6.90625 0.296875 C 5.476562 0.296875 4.378906 0.0351562 3.609375 -0.484375 C 2.835938 -1.003906 2.453125 -1.890625 2.453125 -3.140625 L 2.453125 -9.5625 L 0.65625 -9.5625 L 0.65625 -12.859375 L 2.65625 -12.859375 L 3.703125 -16.75 L 7.296875 -16.75 L 7.296875 -12.859375 Z M 10.03125 -12.859375 "/></g></g></g><g fill="#000000" fill-opacity="1"><g transform="translate(234.694384, 54.899078)"><g><path d="M 8.109375 -13.140625 C 10.460938 -13.140625 12.257812 -12.585938 13.5 -11.484375 C 14.738281 -10.378906 15.359375 -8.691406 15.359375 -6.421875 L 15.359375 -5.59375 L 5.71875 -5.59375 C 5.71875 -4.675781 5.925781 -3.976562 6.34375 -3.5 C 6.757812 -3.03125 7.410156 -2.796875 8.296875 -2.796875 C 9.109375 -2.796875 9.703125 -2.96875 10.078125 -3.3125 C 10.460938 -3.65625 10.65625 -4.109375 10.65625 -4.671875 L 15.359375 -4.671875 C 15.359375 -3.117188 14.765625 -1.898438 13.578125 -1.015625 C 12.398438 -0.140625 10.675781 0.296875 8.40625 0.296875 C 6.007812 0.296875 4.15625 -0.257812 2.84375 -1.375 C 1.53125 -2.488281 0.875 -4.171875 0.875 -6.421875 C 0.875 -8.628906 1.515625 -10.300781 2.796875 -11.4375 C 4.078125 -12.570312 5.847656 -13.140625 8.109375 -13.140625 Z M 8.296875 -10.046875 C 6.773438 -10.046875 5.925781 -9.328125 5.75 -7.890625 L 10.46875 -7.890625 C 10.46875 -8.554688 10.273438 -9.082031 9.890625 -9.46875 C 9.515625 -9.851562 8.984375 -10.046875 8.296875 -10.046875 Z M 8.296875 -10.046875 "/></g></g></g><g fill="#000000" fill-opacity="1"><g transform="translate(250.932575, 54.899078)"><g><path d="M 18.53125 -13.140625 C 19.988281 -13.140625 21.082031 -12.722656 21.8125 -11.890625 C 22.539062 -11.054688 22.90625 -9.867188 22.90625 -8.328125 L 22.90625 0 L 18.0625 0 L 18.0625 -7.734375 C 18.0625 -8.285156 17.925781 -8.726562 17.65625 -9.0625 C 17.394531 -9.394531 17.019531 -9.5625 16.53125 -9.5625 C 15.957031 -9.5625 15.492188 -9.367188 15.140625 -8.984375 C 14.785156 -8.597656 14.609375 -8.117188 14.609375 -7.546875 L 14.609375 0 L 9.765625 0 L 9.765625 -7.734375 C 9.765625 -8.285156 9.628906 -8.726562 9.359375 -9.0625 C 9.085938 -9.394531 8.710938 -9.5625 8.234375 -9.5625 C 7.660156 -9.5625 7.195312 -9.367188 6.84375 -8.984375 C 6.488281 -8.597656 6.3125 -8.117188 6.3125 -7.546875 L 6.3125 0 L 1.453125 0 L 1.453125 -12.859375 L 5.421875 -12.859375 L 5.75 -10.9375 C 6.226562 -11.613281 6.867188 -12.148438 7.671875 -12.546875 C 8.484375 -12.941406 9.332031 -13.140625 10.21875 -13.140625 C 12.15625 -13.140625 13.457031 -12.40625 14.125 -10.9375 C 14.625 -11.613281 15.265625 -12.148438 16.046875 -12.546875 C 16.835938 -12.941406 17.664062 -13.140625 18.53125 -13.140625 Z M 18.53125 -13.140625 "/></g></g></g></svg>